# AST/ASF file generated using VICON BodyLanguage
# -----------------------------------------------
:version 1.10
:name VICON
:units
  mass 1.0
  length 0.45
  angle deg
:documentation
   .ast/.asf automatically generated from VICON data using
   VICON BodyBuilder and BodyLanguage model FoxedUp or BRILLIANT.MOD
:root
   order TX TY TZ RX RY RZ
   axis XYZ
   position 0 0 0  
   orientation 0 0 0 
:bonedata
  begin
     id 1 
     name lhipjoint
     direction 0.630082 -0.636569 0.44472 
     length 2.82754 
     axis 0 0 0  XYZ
  end
  begin
     id 2 
     name lfemur
     direction 0.34202 -0.939693 0  
     length 7.26371  
     axis 0 0 20  XYZ
    dof rx ry rz
    limits (-160.0 20.0)
           (-70.0 70.0)
           (-60.0 70.0)
  end
  begin
     id 3 
     name ltibia
     direction 0.34202 -0.939693 0   
     length 7.88616   
     axis 0 0 20   XYZ
    dof rx
    limits (-10.0 170.0)
  end
  begin
     id 4 
     name lfoot
     direction 0.0603448 -0.165796 0.984312   
     length 1.77861   
     axis -90 7.62852e-016 20   XYZ
    dof rx rz
    limits (-45.0 90.0)
           (-70.0 20.0)
  end
  begin
     id 5 
     name ltoes
     direction 1.53577e-011 -4.21876e-011 1   
     length 0.902235   
     axis -90 7.62852e-016 20   XYZ
    dof rx
    limits (-90.0 20.0)
  end
  begin
     id 6 
     name rhipjoint
     direction -0.656778 -0.61817 0.431866   
     length 2.9117  
     axis 0 0 0  XYZ 
  end
  begin
     id 7 
     name rfemur
     direction -0.34202 -0.939693 0   
     length 6.81603   
     axis 0 0 -20   XYZ
    dof rx ry rz
    limits (-160.0 20.0)
           (-70.0 70.0)
           (-70.0 60.0)
  end
  begin
     id 8 
     name rtibia
     direction -0.34202 -0.939693 0   
     length 8.05997   
     axis 0 0 -20   XYZ
    dof rx
    limits (-10.0 170.0)
 end
 begin
     id 9 
     name rfoot
     direction -0.0862404 -0.236944 0.967688   
     length 1.84899  
     axis -90 -7.62852e-016 -20   XYZ
    dof rx rz
    limits (-45.0 90.0)
           (-20.0 70.0)
  end
  begin
     id 10 
     name rtoes
     direction -1.53561e-011 -4.21798e-011 1   
     length 0.931579   
     axis -90 -7.62852e-016 -20   XYZ
    dof rx
    limits (-90.0 20.0)
  end
  begin
     id 11 
     name lowerback
     direction -0.0110203 0.991769 -0.127564   
     length 2.05686   
     axis 0 0 0   XYZ
    dof rx ry rz
    limits (-20.0 45.0)
           (-30.0 30.0)
           (-30.0 30.0)
  end
  begin
     id 12 
     name upperback
     direction 0.0109719 0.99993 -0.00432479   
     length 2.06234   
     axis 0 0 0   XYZ
    dof rx ry rz
    limits (-20.0 45.0)
           (-30.0 30.0)
           (-30.0 30.0)
  end
  begin
     id 13 
     name thorax
     direction 0.0173308 0.998351 0.0547306   
     length 2.09856   
     axis 0 0 0   XYZ
    dof rx ry rz
    limits (-20.0 45.0)
           (-30.0 30.0)
           (-30.0 30.0)
  end
  begin
     id 14 
     name lowerneck
     direction -0.0311736 0.989033 0.144366   
     length 1.98151   
     axis 0 0 0   XYZ
    dof rx ry rz
    limits (-20.0 45.0)
           (-30.0 30.0)
           (-30.0 30.0)
  end
  begin
     id 15 
     name upperneck
     direction 0.0421057 0.975772 -0.214698   
     length 2.01457   
     axis 0 0 0   XYZ
    dof rx ry rz
    limits (-20.0 45.0)
           (-30.0 30.0)
           (-30.0 30.0)
  end
  begin
     id 16
     name head
     direction 0.0136911 0.995958 -0.0887718  
     length 2.03562  
     axis 0 0 0   XYZ
    dof rx ry rz
    limits (-20.0 45.0)
           (-30.0 30.0)
           (-30.0 30.0)
  end
  begin
     id 17 
     name lclavicle
     direction 0.915335 0.396201 0.0720134  
     length 4.16217  
     axis 0 0 0   XYZ
    dof ry rz
    limits (-20.0 10.0)
           (0.0 20.0)
  end
  begin
     id 18 
     name lhumerus
     direction 1 -4.48965e-011 6.383e-018   
     length 4.93042   
     axis -180 -30 -90   XYZ
    dof rx ry rz
    limits (-60.0 90.0)
           (-90.0 90.0)
           (-90.0 90.0)
  end
  begin
     id 19
     name lradius
     direction 1 -4.48972e-011 8.8689e-027   
     length 3.68177   
     axis -180 -30 -90   XYZ
    dof rx
    limits (-10.0 170.0)
  end
  begin
     id 20
     name lwrist
     direction 1 -4.48953e-011 1.17971e-026   
     length 1.84089   
     axis -7.69454e-015 90 90   XYZ
    dof ry
    limits (-180.0 0.0)
 end
  begin
     id 21 
     name lhand
     direction 1 -4.49027e-011 2.35802e-026   
     length 0.721479   
     axis -1.50533e-014 90 90   XYZ
    dof rx rz
    limits (-90.0 90.0)
           (-45.0 45.0)
  end
  begin
     id 22 
     name lfingers
     direction 1 -4.48915e-011 4.72027e-026   
     length 0.581675   
     axis -3.01059e-014 90 90   XYZ
    dof rx
    limits (0.0 90.0)
  end
  begin
     id 23
     name lthumb
     direction 0.707107 -6.34948e-011 0.707107   
     length 0.835172   
     axis -90 45 -5.12164e-014   XYZ
    dof rx rz
    limits (-45.0 45.0)
           (-45.0 45.0)
  end
  begin
     id 24 
     name rclavicle
     direction -0.882781 0.469197 0.0234974   
     length 3.95647  
     axis 0 0 0   XYZ 
    dof ry rz
    limits (-10.0 20.0)
           (-20.0 0.0)
  end
  begin
     id 25 
     name rhumerus
     direction -1 -4.48965e-011 -1.54906e-018  
     length 5.07905   
     axis -180 30 90   XYZ
    dof rx ry rz
    limits (-90.0 60.0)
           (-90.0 90.0)
           (-90.0 90.0)
  end
  begin
     id 26 
     name rradius
     direction -1 -4.48972e-011 5.47489e-027   
     length 3.54394   
     axis -180 30 90   XYZ
    dof rx
    limits (-10.0 170.0)
  end
  begin
     id 27 
     name rwrist
     direction -1 -4.48955e-011 1.17969e-026   
     length 1.77197   
     axis -7.69454e-015 -90 -90   XYZ
    dof ry
    limits (-180.0 0.0)
  end
  begin
     id 28
     name rhand
     direction -1 -4.48982e-011 2.35888e-026   
     length 0.681156   
     axis -1.50533e-014 -90 -90   XYZ
    dof rx rz
    limits (-90.0 90.0)
           (-45.0 45.0)
  end
  begin
     id 29
     name rfingers
     direction -1 -4.48955e-011 4.71877e-026   
     length 0.549165   
     axis -3.01059e-014 -90 -90   XYZ
    dof rx
    limits (0.0 90.0)
  end
  begin
     id 30
     name rthumb
     direction -0.707107 -6.3491e-011 0.707107   
     length 0.788495   
     axis -90 -45 5.12164e-014   XYZ
    dof rx rz
    limits (-45.0 45.0)
           (-45.0 45.0)
  end
:hierarchy
  begin
    root lhipjoint rhipjoint lowerback
    lhipjoint lfemur
    lfemur ltibia
    ltibia lfoot
    lfoot ltoes
    rhipjoint rfemur
    rfemur rtibia
    rtibia rfoot
    rfoot rtoes
    lowerback upperback
    upperback thorax
    thorax lowerneck lclavicle rclavicle
    lowerneck upperneck
    upperneck head
    lclavicle lhumerus
    lhumerus lradius
    lradius lwrist
    lwrist lhand lthumb
    lhand lfingers
    rclavicle rhumerus
    rhumerus rradius
    rradius rwrist
    rwrist rhand rthumb
    rhand rfingers
  end

#!OML:ASF H:\Bending\Project 1\Capture day 1\Session 1\Subject.ASF
:FULLY-SPECIFIED
:DEGREES
1
root -9.76505 17.9569 -16.325 -138.881 88.5427 -141.821
lowerback 6.9844 -0.256664 0.665425
upperback -2.01149 -0.198647 1.27909
thorax -6.01678 -0.0935529 0.983069
lowerneck -23.0298 -4.64861 -6.57111
upperneck 33.5247 -5.12898 4.11332
head 16.143 -2.14584 1.93392
rclavicle 3.68994e-015 -2.54444e-014
rhumerus -37.8649 -1.84835 -77.731
rradius 29.9659
rwrist 21.2782
rhand -14.2091 -13.0542
rfingers 7.12502
rthumb 11.9275 -42.6945
lclavicle 3.68994e-015 -2.54444e-014
lhumerus -35.5152 6.81998 86.5304
lradius 26.1638
lwrist 17.9891
lhand -30.7578 8.79305
lfingers 7.12502
lthumb -4.04923 38.7343
rfemur 5.67171 -4.50737 14.7057
rtibia 7.95139e-015
rfoot -9.05693 -14.9146
rtoes 5.46299
lfemur -6.96349 -11.9665 -11.331
ltibia 20.2371
lfoot -19.0719 5.85176
ltoes -11.7602
2
root -9.75765 17.9574 -16.3259 -139.657 88.5455 -142.617
lowerback 6.95325 -0.227302 0.66805
upperback -2.02326 -0.159928 1.27116
thorax -6.01185 -0.0747183 0.968519
lowerneck -22.9855 -4.67158 -6.60566
upperneck 33.4562 -5.16645 4.151
head 16.1045 -2.16152 1.94741
rclavicle 6.21202e-016 6.36111e-015
rhumerus -37.8941 -1.97863 -77.7151
rradius 29.8986
rwrist 21.3371
rhand -14.2387 -13.0152
rfingers 7.12502
rthumb 11.899 -42.6571
lclavicle 6.21202e-016 6.36111e-015
lhumerus -35.4383 6.58926 86.6444
lradius 26.3335
lwrist 18.1378
lhand -30.7709 8.77312
lfingers 7.12502
lthumb -4.06189 38.7141
rfemur 5.66805 -4.52043 14.689
rtibia 6.36111e-015
rfoot -8.99081 -14.9378
rtoes 5.03653
lfemur -6.97841 -11.918 -11.3472
ltibia 20.2562
lfoot -19.0858 5.75823
ltoes -11.3677
3
root -9.75087 17.9574 -16.3265 -140.932 88.5444 -143.901
lowerback 6.93391 -0.196675 0.666343
upperback -2.02536 -0.120406 1.25626
thorax -6.00347 -0.0555241 0.94907
lowerneck -22.9608 -4.6946 -6.62386
upperneck 33.4081 -5.21046 4.19128
head 16.0807 -2.17682 1.95815
rclavicle 3.23025e-016 -1.63003e-014
rhumerus -37.9197 -2.13635 -77.6942
rradius 29.8563
rwrist 21.4449
rhand -14.2536 -13.2277
rfingers 7.12502
rthumb 11.8846 -42.8704
lclavicle 3.23025e-016 -1.63003e-014
lhumerus -35.3471 6.33839 86.7602
lradius 26.5008
lwrist 18.2514
lhand -30.7597 8.75672
lfingers 7.12502
lthumb -4.05109 38.6979
rfemur 5.68153 -4.54294 14.6604
rtibia -1.59028e-015
rfoot -8.94684 -14.9453
rtoes 4.77272
lfemur -6.97712 -11.9021 -11.3725
ltibia 20.2645
lfoot -19.1021 5.66458
ltoes -10.8095
4
root -9.74448 17.9564 -16.3273 -142.788 88.5407 -145.748
lowerback 6.93008 -0.172692 0.660078
upperback -2.01963 -0.0905213 1.23534
thorax -5.99558 -0.0410817 0.927128
lowerneck -22.9586 -4.71024 -6.61191
upperneck 33.3921 -5.24547 4.20822
head 16.0751 -2.1872 1.9559
rclavicle -2.60905e-016 1.59028e-014
rhumerus -37.9398 -2.2636 -77.6874
rradius 29.8328
rwrist 21.5435
rhand -14.2971 -13.6036
rfingers 7.12502
rthumb 11.8426 -43.2487
lclavicle -2.60905e-016 1.59028e-014
lhumerus -35.2597 6.08505 86.8738
lradius 26.6763
lwrist 18.3437
lhand -30.7356 8.76616
lfingers 7.12502
lthumb -4.02784 38.7078
rfemur 5.7169 -4.57416 14.6142
rtibia 6.36111e-015
rfoot -8.92938 -14.9444
rtoes 4.67107
lfemur -6.96036 -11.9152 -11.4142
ltibia 20.2779
lfoot -19.1264 5.58166
ltoes -10.2733
5
root -9.73814 17.9544 -16.3284 -144.965 88.5323 -147.9
lowerback 6.9398 -0.161532 0.654585
upperback -2.01059 -0.0775683 1.21435
thorax -5.99174 -0.0350247 0.906769
lowerneck -22.9687 -4.7143 -6.57295
upperneck 33.4044 -5.25934 4.18842
head 16.0822 -2.19023 1.93791
rclavicle -3.13086e-015 7.15625e-015
rhumerus -37.9497 -2.32157 -77.7007
rradius 29.8065
rwrist 21.595
rhand -14.395 -13.9647
rfingers 7.12502
rthumb 11.7482 -43.6152
lclavicle -3.13086e-015 7.15625e-015
lhumerus -35.1936 5.84907 86.9843
lradius 26.8672
lwrist 18.4408
lhand -30.7192 8.81503
lfingers 7.12502
lthumb -4.01199 38.757
rfemur 5.77199 -4.61124 14.5562
rtibia 4.77083e-015
rfoot -8.93965 -14.9423
rtoes 4.70443
lfemur -6.92942 -11.9447 -11.4681
ltibia 20.2983
lfoot -19.1554 5.5195
ltoes -9.93352
6
root -9.73155 17.9516 -16.33 -147.015 88.5153 -149.913
lowerback 6.96091 -0.165665 0.65828
upperback -2.00235 -0.0834924 1.20095
thorax -5.99508 -0.0384212 0.891491
lowerneck -22.9733 -4.70703 -6.52628
upperneck 33.4289 -5.24806 4.13878
head 16.0906 -2.18619 1.91116
rclavicle -3.50358e-015 1.39149e-014
rhumerus -37.9427 -2.31043 -77.7245
rradius 29.7497
rwrist 21.6038
rhand -14.5368 -14.1291
rfingers 7.12502
rthumb 11.6115 -43.7874
lclavicle -3.50358e-015 1.39149e-014
lhumerus -35.1576 5.65042 87.0909
lradius 27.0713
lwrist 18.5639
lhand -30.7264 8.89659
lfingers 7.12502
lthumb -4.01889 38.8384
rfemur 5.84404 -4.65089 14.4996
rtibia -6.36111e-015
rfoot -8.97511 -14.9415
rtoes 4.83473
lfemur -6.89071 -11.9787 -11.5227
ltibia 20.3332
lfoot -19.1892 5.48231
ltoes -9.87433
